<svg version="1.1" xmlns="http://www.w3.org/2000/svg" xmlns:xlink="http://www.w3.org/1999/xlink" x="0px" y="0px" viewBox="0 0 1000 1000" enable-background="new 0 0 1000 1000" xml:space="preserve" id="cooler">
<g><g transform="translate(0.000000,512.000000) scale(0.100000,-0.100000)"><path d="M523.4,4986.6c-116.9-40.2-218.5-116.9-304.7-230C88.4,4588,98,4933,101.8,78.9l5.7-4398l42.2-90.1c57.5-126.5,184-254.9,310.4-316.2l107.3-53.7h4436.3h4436.3l107.3,53.7c126.5,61.3,253,189.7,310.5,316.2l42.2,90.1V117.3v4436.3l-53.7,107.3c-61.3,126.5-189.7,253-316.2,310.4l-90.1,42.2l-4407.5,3.8C801.3,5021.1,621.1,5021.1,523.4,4986.6z M1525.6,4465.4c128.4-59.4,251-185.9,312.4-320c42.2-88.2,49.8-138,51.7-262.5c0-136.1-7.7-168.6-63.2-281.7c-72.8-147.6-176.3-249.1-327.7-318.1c-153.3-72.8-367.9-70.9-523.1,0c-134.1,61.3-260.6,184-320,312.4c-69,143.7-76.7,366-19.2,517.4c55.6,151.4,214.6,312.4,362.2,369.8C1144.3,4540.1,1385.8,4532.5,1525.6,4465.4z M5553.8,4496.1c1337.6-176.3,2502.7-927.5,3209.9-2071.6c289.4-467.6,492.5-1004.1,590.2-1559.9c53.7-300.9,72.8-877.7,40.2-1192c-141.8-1368.3-908.3-2588.9-2083-3315.2c-467.6-289.4-1004.2-492.5-1559.9-590.2c-300.9-53.7-877.7-72.8-1192-40.2C2832.6-4094.8,1366.6-2920.1,816.6-1275.9c-155.2,465.7-220.4,879.6-220.4,1397c0,687.9,143.7,1320.3,438.8,1922.1c657.3,1341.4,1918.3,2249.8,3403.4,2451C4706.8,4530.5,5275.9,4530.5,5553.8,4496.1z M9062.5,4457.7c134.1-72.8,260.6-214.6,310.4-350.7c59.4-153.3,47.9-373.7-26.8-517.4c-69-134.1-182.1-245.3-316.2-306.6c-155.2-72.8-367.9-72.8-528.9,1.9c-536.6,249.1-509.7,1000.3,44.1,1211.1c47.9,19.2,128.4,26.8,243.4,23C8938,4515.2,8974.4,4505.6,9062.5,4457.7z M1420.3-3017.9c193.5-57.5,327.7-174.4,415.8-362.2c74.7-161,74.7-373.7,1.9-528.9c-61.3-134.1-172.5-247.2-306.6-316.2c-143.7-74.7-364.1-86.2-517.4-26.8c-136.1,49.8-277.9,174.4-350.7,310.4c-53.7,93.9-57.5,116.9-57.5,293.2c0,164.8,5.7,205,46,287.5C793.6-3073.4,1119.4-2927.8,1420.3-3017.9z M9020.4-3044.7c139.9-61.3,243.4-157.1,314.3-291.3c88.1-164.8,101.6-369.9,36.4-542.3c-59.4-157.1-214.6-312.4-371.8-371.8c-172.5-65.1-377.5-51.7-542.3,36.4c-511.7,272.1-435,1017.6,122.6,1195.8C8700.4-2979.5,8901.6-2991,9020.4-3044.7z"/><path d="M1073.4,4155C922,4053.4,876,3873.2,964.2,3716.1c134.1-237.6,482.9-208.9,580.6,51.7c82.4,214.6-74.7,431.2-310.4,431.2C1167.3,4199,1119.4,4185.6,1073.4,4155z"/><path d="M5329.6,4185.6c0-3.8,49.8-90.1,113-193.5c346.9-574.9,477.2-965.8,494.4-1483.2c15.3-452.2-55.6-783.8-260.6-1213l-92-193.6l93.9-65.1c51.7-34.5,132.2-105.4,176.3-157.1l80.5-92l124.6,92c164.8,126.5,392.9,367.9,509.8,542.3c333.4,494.4,484.8,1090.4,484.8,1916.3v321.9l-253,124.6c-293.2,143.7-678.4,276-983.1,335.4C5613.2,4160.7,5329.6,4199,5329.6,4185.6z"/><path d="M3696.8,3988.2c-264.5-88.2-563.4-226.1-795.3-366c-216.5-132.2-550-381.3-528.9-398.6c7.7-7.7,101.6-34.5,207-59.4c281.7-65.2,603.6-180.1,839.3-300.9c584.5-298.9,988.8-770.4,1222.6-1423.8c65.2-184,74.7-201.2,116.9-195.5c23,1.9,132.2,5.7,239.5,7.7l195.4,3.8l15.4,107.3c26.8,189.7,15.3,628.5-21.1,804.9c-90.1,421.6-281.7,814.4-603.6,1226.4c-139.9,182.1-609.4,670.7-642,670.7C3930.6,4064.9,3819.5,4030.4,3696.8,3988.2z"/><path d="M8100.5,2738.8c-5.7-13.4-26.8-107.3-51.7-207C7799.7,1474,7238.2,805.2,6326,479.4c-182.1-65.1-201.2-74.7-195.5-116.9c1.9-23,5.8-132.2,7.7-237.6l3.8-195.4l164.8-21.1c222.3-28.7,394.8-26.8,613.2,7.7c624.7,93.9,1153.6,389,1768.8,986.9l272.1,264.5l-82.4,243.4c-145.6,431.2-341.1,802.9-609.4,1159.4c-78.6,105.4-147.6,191.6-153.3,191.6C8110.1,2761.8,8104.4,2750.3,8100.5,2738.8z"/><path d="M1334,1912.9c-143.7-295.1-274-680.3-333.4-981.2C958.4,720.9,922,443,937.3,443c3.8,0,90.1,51.7,193.5,115c101.6,63.2,293.2,164.8,423.5,228c423.5,201.2,732,274,1149.8,274c400.5,0,772.3-92,1169-291.3l143.7-72.8l65.1,95.8c36.4,51.7,109.2,132.2,159.1,176.3l93.9,82.4l-113.1,141.8c-369.9,465.7-883.4,762.7-1548.4,896.8c-285.5,57.5-527,78.6-889.2,78.6h-325.8L1334,1912.9z"/><path d="M4873.5,920.2c-237.6-32.6-486.8-218.4-596-442.7c-243.4-496.3,69-1088.5,611.3-1163.2c442.7-61.3,856.6,249.1,917.9,688C5881.4,544.6,5421.5,998.8,4873.5,920.2z"/><path d="M3058.7,316.5c-613.2-95.8-1207.3-440.8-1818.6-1059.7l-191.6-191.6l78.6-235.7c90-276,208.9-534.7,358.3-789.5c113.1-189.7,392.8-576.8,408.2-561.5c3.8,5.7,36.4,120.7,72.8,254.9c168.6,645.8,366,1029.1,716.7,1391.3C2961-586,3269.5-392.5,3681.5-244.9c182.1,65.2,201.2,74.7,195.5,116.9c-1.9,23-7.7,132.2-9.6,239.5l-3.8,193.5l-164.8,21.1C3488,353,3275.3,351,3058.7,316.5z"/><path d="M8903.5-306.3c-557.6-352.6-1067.4-519.3-1581-521.2c-404.3,0-722.5,74.7-1121.1,262.5l-212.7,101.6l-65.2-93.9c-34.5-51.7-107.3-132.2-157.1-176.3l-93.9-82.4l113.1-141.8c527-663,1305-975.4,2431.8-975.4h329.6l124.6,254.9c199.3,406.3,341.1,885.3,390.9,1331.8c9.6,74.7,11.5,138,5.7,138C9062.5-210.4,8987.8-252.6,8903.5-306.3z"/><path d="M3947.9-645.4c-161-122.7-412-389-519.3-553.8c-327.7-496.3-475.2-1088.5-475.2-1901v-320l149.5-78.6c316.2-168.6,726.3-314.3,1088.5-387.1c189.7-38.3,486.8-78.6,486.8-65.1c0,3.8-53.7,95.8-118.8,203.1c-348.8,578.7-494.4,1034.8-494.4,1554.1c0,415.8,72.8,728.2,266.4,1132.6l92,193.5l-93.9,65.2c-51.7,34.5-132.2,105.4-176.3,157.1l-80.5,92L3947.9-645.4z"/><path d="M5137.9-1015.3c-57.5-9.6-155.2-11.5-214.6-5.7l-107.3,11.5l-17.3-113.1c-26.8-195.5-15.3-632.4,21.1-810.6c124.6-586.4,458-1134.5,1044.4-1715.1l193.6-189.7l241.4,80.5c285.5,97.8,528.9,207,781.9,356.5c189.7,113,576.8,392.8,561.5,408.2c-5.7,3.8-120.7,36.4-254.9,72.8c-337.3,88.1-553.8,166.7-799.1,291.3c-584.5,298.9-990.7,772.3-1222.6,1423.8c-40.2,115-82.4,203.1-95.8,203.1C5254.8-1000,5195.4-1005.7,5137.9-1015.3z"/><path d="M8598.8,4155c-86.2-47.9-164.8-178.2-164.8-270.2c0-32.6,17.3-93.9,36.4-136c149.5-325.8,615.1-220.4,615.1,138C9085.5,4131.9,8817.3,4279.5,8598.8,4155z"/><path d="M1092.5-3357c-293.2-155.2-187.8-607.5,141.8-607.5c233.8,0,398.6,226.1,312.4,431.2c-42.2,99.6-82.4,141.8-174.4,184C1268.9-3301.5,1194.1-3303.4,1092.5-3357z"/><path d="M8635.2-3349.4c-92-42.1-132.2-84.3-172.5-180.1c-38.3-93.9-36.4-157.1,11.5-256.8c59.4-120.7,176.3-185.9,316.2-174.4c172.5,15.3,276,118.8,291.3,291.3c11.5,139.9-53.7,256.8-174.4,316.2C8805.8-3303.4,8734.9-3303.4,8635.2-3349.4z"/></g></g>
</svg>