<svg version="1.1" xmlns="http://www.w3.org/2000/svg" xmlns:xlink="http://www.w3.org/1999/xlink" x="0px" y="0px" viewBox="0 0 1000 1000" enable-background="new 0 0 1000 1000" xml:space="preserve" id="cpu">
<g><g transform="translate(0.000000,511.000000) scale(0.100000,-0.100000)"><path d="M804.4,4771.1c-28.7-15.3-61.2-59.3-74.6-95.7l-24.9-67H507.7H310.5v-105.3c0-93.8-3.8-105.3-40.2-105.3c-65.1,0-170.4-118.7-170.4-191.4c0-88,53.6-166.5,137.8-201l72.7-28.7v-191.4v-191.4l-76.6-30.6c-134-53.6-176.1-204.8-86.1-310.1c26.8-32.5,74.6-63.2,105.3-70.8l57.4-13.4v-197.1v-197.1l-68.9-23C167,2726.9,100,2636.9,100,2560.3s67-166.5,141.6-191.4l68.9-23v-199.1c0-189.5-1.9-199.1-40.2-199.1c-63.2,0-170.4-118.7-170.4-189.5c0-95.7,47.9-166.5,134-201l76.6-30.6v-191.4v-191.4l-76.6-30.6c-134-53.6-176.1-204.8-86.1-310.1c26.8-32.5,74.6-63.2,105.3-70.8l57.4-13.4V521.8V324.7l-68.9-23C167,276.9,100,186.9,100,110.3c0-76.6,67-166.5,141.6-191.4l68.9-23v-199.1c0-189.5-1.9-199.1-40.2-199.1c-63.2,0-170.4-118.7-170.4-189.5c0-95.7,47.9-166.5,134-201l76.6-30.6v-191.4c0-166.5-3.8-193.3-34.4-202.9C155.5-1355.8,100-1424.8,100-1537.7c0-70.8,107.2-189.5,170.4-189.5c38.3,0,40.2-9.6,40.2-199.1v-199.1l-68.9-23C167-2173.2,100-2263.1,100-2339.7s67-166.5,141.6-191.4l68.9-23v-199.1c0-189.5-1.9-199.1-40.2-199.1c-63.2,0-170.4-118.7-170.4-189.5c0-95.7,47.9-166.5,134-201l76.6-30.6v-191.4c0-166.5-3.8-193.3-34.4-202.9C157.4-3805.8,100-3874.8,100-3983.9c0-72.7,78.5-168.4,153.1-183.7c55.5-11.5,57.4-17.2,57.4-116.8v-103.4h197.1h197.2l24.9-67c45.9-130.2,229.7-168.4,329.2-68.9c30.6,30.6,55.5,74.6,55.5,95.7c0,38.3,9.6,40.2,210.5,40.2s210.5-1.9,210.5-40.2c0-21.1,24.9-65.1,55.5-95.7c99.5-99.5,262.2-67,321.6,61.2l34.4,72.7l195.2,1.9c193.3,0,197.1,0,208.6-47.9c19.1-74.7,112.9-143.6,197.1-143.6c88,0,151.2,44,185.7,126.3l26.8,65.1h197.1h197.2l24.9-67c45.9-130.2,229.7-168.4,329.2-68.9c30.6,30.6,55.5,74.6,55.5,95.7c0,38.3,9.6,40.2,210.5,40.2c201,0,210.5-1.9,210.5-40.2c0-21.1,24.9-65.1,55.5-95.7c99.5-99.5,283.3-61.3,329.2,68.9l24.9,67h197.2c193.3,0,197.1,0,208.6-47.9c19.1-74.7,112.9-143.6,199.1-143.6s179.9,68.9,199.1,143.6c11.5,47.9,15.3,47.9,208.6,47.9h197.1l24.9-67c45.9-130.2,229.7-168.4,329.2-68.9c30.6,30.6,55.5,74.6,55.5,95.7c0,38.3,9.6,40.2,210.5,40.2s210.5-1.9,210.5-40.2c0-21.1,24.9-65.1,55.5-95.7c99.5-99.5,262.2-67,321.6,61.2l34.5,72.7l195.2,1.9c193.3,0,197.1,0,208.6-47.9c19.1-74.7,112.9-143.6,197.2-143.6c88,0,151.2,44,185.6,126.3l26.8,65.1h197.1h197.1l24.9-67c45.9-130.2,229.7-168.4,329.2-68.9c30.6,30.6,55.5,74.6,55.5,95.7c0,38.3,9.6,40.2,210.5,40.2s210.5-1.9,210.5-40.2c0-21.1,24.9-65.1,55.5-95.7c99.5-99.5,262.2-67,321.6,61.2l34.5,72.7l197.1,1.9h195.2v103.4c0,99.5,1.9,105.3,57.4,116.8c74.7,15.3,153.1,111,153.1,183.7c0,109.1-57.4,178-176.1,216.3c-30.6,9.6-34.5,36.4-34.5,202.9v191.4l72.7,28.7c84.2,34.4,137.8,112.9,137.8,201c0,72.7-105.3,191.4-170.4,191.4c-38.3,0-40.2,9.6-40.2,199.1v199.1l68.9,23c74.7,24.9,141.7,114.8,141.7,191.4s-67,166.5-141.7,191.4l-68.9,23v197.1v197.1l57.4,13.4c74.7,15.3,153.1,111,153.1,183.8c0,109.1-57.4,178-176.1,216.3c-30.6,9.6-34.5,36.4-34.5,202.9v191.4l72.7,28.7c84.2,34.5,137.8,112.9,137.8,201c0,72.7-105.3,191.4-170.4,191.4c-38.3,0-40.2,9.6-40.2,199.1v199.1l68.9,23C9833-56.2,9900,33.8,9900,110.3c0,76.6-67,166.5-141.7,191.4l-68.9,23v197.1V719l57.4,13.4c30.6,7.7,78.5,38.3,105.3,70.8c90,105.3,47.9,256.5-86.1,310.1l-76.6,30.6v191.4v191.4l72.7,28.7c84.2,34.5,137.8,112.9,137.8,201c0,72.7-105.3,191.4-170.4,191.4c-38.3,0-40.2,9.6-40.2,199.1v199.1l68.9,23c74.7,24.9,141.7,114.8,141.7,191.4s-67,166.5-141.7,191.4l-68.9,23v197.1V3169l57.4,13.4c30.6,7.7,78.5,38.3,105.3,70.8c90,105.3,47.9,256.5-86.1,310.1l-76.6,30.6v191.4v191.4l72.7,28.7c84.2,34.5,137.8,112.9,137.8,201c0,72.7-105.3,191.4-170.4,191.4c-36.4,0-40.2,11.5-40.2,105.3v105.3h-197.1h-197.1l-24.9,67c-45.9,130.2-229.7,168.4-329.2,68.9c-30.6-30.6-55.5-74.6-55.5-95.7c0-38.3-9.6-40.2-210.5-40.2s-210.5,1.9-210.5,40.2c0,21.1-24.9,65.1-55.5,95.7c-107.2,107.2-302.4,57.4-338.8-86.1c-11.5-49.8-13.4-49.8-210.5-49.8h-199.1l-26.8,65.1c-34.4,82.3-97.6,126.3-185.6,126.3c-84.2,0-178-68.9-197.2-143.6c-11.5-47.9-15.3-47.9-208.6-47.9h-197.1l-24.9,67c-45.9,130.2-229.7,168.4-329.2,68.9c-30.6-30.6-55.5-74.6-55.5-95.7c0-38.3-9.6-40.2-210.5-40.2s-210.5,1.9-210.5,40.2c0,21.1-24.9,65.1-55.5,95.7c-107.2,107.2-302.4,57.4-338.8-86.1l-11.5-51.7l-204.8,5.8c-193.3,5.7-202.9,7.7-208.6,47.9c-9.6,68.9-109.1,139.7-195.2,139.7s-179.9-68.9-199.1-143.6c-11.5-47.9-15.3-47.9-208.6-47.9h-197.2l-24.9,67c-45.9,130.2-229.7,168.4-329.2,68.9c-30.6-30.6-55.5-74.6-55.5-95.7c0-38.3-9.6-40.2-210.5-40.2c-201,0-210.5,1.9-210.5,40.2c0,21.1-24.9,65.1-55.5,95.7c-107.2,107.2-302.4,57.4-338.8-86.1c-11.5-49.8-13.4-49.8-210.5-49.8h-199.1l-26.8,65.1c-34.5,82.3-97.6,126.3-185.7,126.3c-84.2,0-178-68.9-197.1-143.6c-11.5-47.9-15.3-47.9-210.5-47.9c-197.2,0-199.1,0-210.5,49.8c-36.4,143.6-231.6,193.3-338.8,86.1c-30.6-30.6-55.5-74.6-55.5-95.7c0-38.3-9.6-40.2-210.5-40.2s-210.5,1.9-210.5,40.2c0,21.1-24.9,65.1-55.5,95.7C993.9,4807.4,892.4,4818.9,804.4,4771.1z M9287.5,3574.8c0-591.4-1.9-612.5-36.4-612.5c-55.5,0-151.2-88-164.6-151.2c-19.1-91.9,34.5-191.4,124.4-227.8l76.6-32.5V-707v-3259.6h-1692h-1692l55.5,55.5c130.2,130.2,32.5,346.4-156.9,346.4c-86.1,0-189.5-107.2-189.5-195.2c1.9-78.5,38.3-147.4,97.6-179.9c40.2-21.1-1.9-24.9-296.7-26.8h-342.6l49.8,38.3c118.7,93.8,101.4,273.7-32.5,338.8c-141.6,67-289-30.6-289-187.6c0-65.1,11.5-88.1,63.2-134l61.3-55.5l-338.8,1.9c-243.1,0-329.2,5.8-300.5,19.1c55.5,26.8,103.4,116.8,103.4,189.5c0,84.2-107.2,191.4-191.4,191.4c-126.3,0-208.6-82.3-210.5-206.7c0-67,11.5-93.8,55.5-139.7l55.5-55.5h-1246h-1248l-444.1,444.1l-446,446v2813.7v2813.7l76.6,32.5c88,36.4,145.5,139.7,124.4,222c-15.3,63.2-111,157-160.8,157c-40.2,0-40.2,5.7-40.2,612.5v612.5H5000h4287.5V3574.8z M875.2-3813.5l153.1-153.1H869.5h-157v153.1c0,84.2,1.9,153.1,5.7,153.1C720.2-3660.4,791-3729.3,875.2-3813.5z"/><path d="M1596.8,3764.3c-88.1-26.8-225.9-168.4-250.7-258.4c-13.4-47.9-21.1-379-21.1-922.6v-846l-105.3-210.5l-105.3-210.5V110.3v-1205.9l105.3-210.5l105.3-210.5v-846c0-543.6,7.7-874.7,21.1-922.6c26.8-95.7,156.9-225.9,258.4-256.5c57.4-17.2,331.1-23,1020.2-23h939.8l210.5,105.3l210.5,105.3h1110.2h1110.2l212.5-105.3l210.5-107.2l886.2,5.7l884.3,5.7l80.4,53.6c44,28.7,103.4,88.1,132.1,132.1l53.6,80.4l9.6,899.6l9.6,901.5l101.4,195.2l99.5,197.1V110.3v1205.9l-99.5,197.1l-101.4,195.2l-9.6,901.5l-9.6,899.6l-53.6,80.4c-28.7,44-88.1,103.4-132.1,132.1l-80.4,53.6l-3368.7,3.8C2915.6,3781.5,1637,3775.8,1596.8,3764.3z M8273,2493.3l9.6-880.5l91.9-176.1l90-178V110.3v-1148.4l-90-178l-91.9-176.1l-9.6-880.5l-9.6-880.5l-759.9-5.7l-761.8-3.8l-210.5,105.3l-210.5,105.3H5105.3H3889.8l-210.5-105.3l-210.5-105.3l-867.1,3.8l-865.2,5.7l-9.6,880.5l-9.6,880.5l-90,176.1l-91.9,178V110.3v1148.4l95.7,191.4l95.7,191.4v857.5c0,472.8,5.7,865.2,13.4,870.9c5.7,7.7,1477.7,11.5,3267.3,9.6l3255.8-5.7L8273,2493.3z"/><path d="M2148,110.3v-2852h2852h2852v2852v2852H5000H2148V110.3z M7450,110.3v-2450H5000H2550v2450v2450h2450h2450V110.3z"/><path d="M3539.6,644.3c-181.8-42.1-331.1-166.5-413.4-340.7c-44-95.7-49.8-130.2-49.8-327.3c0-197.1,5.7-231.6,49.8-325.4c101.4-214.4,271.8-327.3,516.8-340.7c340.7-19.1,576.1,162.7,614.4,474.7c5.7,45.9,1.9,47.9-128.2,53.6l-134,5.8l-34.4-95.7c-57.4-164.6-195.2-237.3-361.8-191.4c-160.8,42.1-250.7,199.1-248.8,440.2c0,260.3,132.1,419.2,344.5,419.2c116.8,0,208.6-57.4,258.4-158.9l36.4-70.8h134h135.9l-11.5,68.9C4201.8,531.4,3859.2,719,3539.6,644.3z"/><path d="M4559.8-23.7v-650.8h134h132.1l5.7,235.4l5.7,233.5l239.3,9.6c266.1,13.4,319.6,30.6,417.3,141.7c74.6,86.1,107.2,201,90,327.3c-13.4,116.8-59.3,197.1-147.4,264.1c-97.6,74.7-191.4,90-545.5,90h-331.1V-23.7z M5256.5,341.9c38.3-36.4,49.8-65.1,49.8-130.2c0-151.2-109.1-208.6-363.7-193.3l-105.3,5.7l-5.7,160.8c-3.8,88,0,174.2,5.7,189.5c7.7,21.1,47.9,24.9,189.5,19.1C5187.6,387.9,5212.5,382.1,5256.5,341.9z"/><path d="M5823,278.8c0-715.9,53.6-857.5,352.2-943.6c139.7-40.2,380.9-30.6,505.3,19.1c93.8,38.3,197.1,149.3,231.6,252.7c17.2,47.9,28.7,231.6,34.4,547.4l9.6,472.8h-143.6h-143.6l-7.7-467c-5.7-440.2-7.6-470.9-45.9-522.5c-21.1-28.7-68.9-65.1-105.3-76.6c-76.6-28.7-233.5-15.3-294.8,24.9c-86.1,55.5-93.8,105.3-101.4,587.6l-7.7,453.6h-141.6H5823V278.8z"/></g></g>
</svg>