<svg version="1.1" xmlns="http://www.w3.org/2000/svg" xmlns:xlink="http://www.w3.org/1999/xlink" x="0px" y="0px" viewBox="0 0 1000 1000" enable-background="new 0 0 1000 1000" xml:space="preserve" id="hdd">
<g><g transform="translate(0.000000,512.000000) scale(0.100000,-0.100000)"><path d="M1390.1,4954.9l-65.1-65.1V1480.9V-1928h3675h3675v3408.9v3408.9l-65.1,65.1l-65.1,65.1H5000H1455.2L1390.1,4954.9z M5411.5,4168.2c918.8-149.3,1693.9-761.8,2044.2-1617.4C7976.4,1278,7429-186.3,6196.3-816c-587.6-300.5-1293.9-367.5-1939-181.8c-206.7,59.3-545.5,220.1-733.1,348.4c-493.8,335-853.7,809.7-1041.3,1368.6c-160.8,478.5-178,953.2-57.4,1464.3c241.2,1012.5,1100.6,1806.9,2143.7,1983C4778,4202.7,5201,4202.7,5411.5,4168.2z"/><path d="M4697.6,3775.9c-264.2-38.3-597.2-153.1-826.9-287.1c-1016.4-593.4-1403-1883.4-878.6-2934.3c88-176.1,239.3-402,323.5-482.3c68.9-67,15.3-112.9,430.7,363.7c166.5,189.5,321.6,354.1,342.6,367.5c74.6,44,181.8,30.6,243.1-30.6c44-45.9,55.5-72.7,55.5-141.6c0-84.2-7.7-93.8-352.2-484.3c-250.7-285.2-346.4-405.8-333-423c38.3-47.9,335-208.6,501.5-269.9c281.4-105.3,482.3-141.7,786.7-143.6c201,0,313.9,9.6,449.8,38.3c861.3,185.7,1514,805.8,1736.1,1651.8c59.3,225.9,80.4,624,45.9,861.3c-135.9,928.3-809.6,1659.5-1726.5,1875.8C5292.9,3785.4,4898.6,3804.6,4697.6,3775.9z M5243.1,2110.6c116.8-51.7,262.2-195.2,313.9-312c67-151.2,65.1-367.5-7.6-514.9c-57.4-118.7-158.9-220.1-285.2-287.1c-68.9-36.4-111-44-264.1-44s-195.2,7.7-264.1,44c-126.3,67-227.8,168.4-285.2,287.1c-72.7,145.5-76.6,365.6-9.6,511.1c47.9,105.3,149.3,220.1,250.7,281.4C4841.1,2170,5076.6,2183.4,5243.1,2110.6z"/><path d="M4869.8,1699.1c-72.7-61.3-91.9-137.8-53.6-225.9c28.7-70.8,111-128.2,183.8-128.2c70.8,0,155,57.4,183.7,124.4C5266.1,1666.6,5032.5,1836.9,4869.8,1699.1z"/><path d="M1325-3489.9v-1159.9l65.1-65.1l65.1-65.1l3552.5,3.8l3552.5,5.7l51.7,53.6l53.6,51.7l5.7,1167.6L8675-2330H5000H1325V-3489.9z M7187.8-2760.7c197.1-51.7,321.6-157,409.6-344.5c135.9-294.8,5.7-650.8-292.9-796.2c-67-32.5-135.9-47.9-239.3-51.7c-128.2-7.7-162.7,0-264.2,45.9c-143.6,63.2-283.3,208.6-333,344.5c-17.2,51.7-32.5,147.4-32.5,212.5c0,285.2,179.9,516.8,457.5,591.4C7011.7-2726.2,7059.5-2726.2,7187.8-2760.7z"/><path d="M6921.7-3187.5c-105.3-84.2-112.9-208.6-19.1-302.4c74.6-74.6,153.1-86.1,241.2-32.5c174.2,101.4,101.4,369.4-99.5,369.4C6994.5-3153,6944.7-3166.5,6921.7-3187.5z"/></g></g>
</svg>