<?xml version="1.0" encoding="utf-8"?>
<!-- Svg Vector Icons : http://www.onlinewebfonts.com/icon -->
<!DOCTYPE svg PUBLIC "-//W3C//DTD SVG 1.1//EN" "http://www.w3.org/Graphics/SVG/1.1/DTD/svg11.dtd">
<svg version="1.1" xmlns="http://www.w3.org/2000/svg" xmlns:xlink="http://www.w3.org/1999/xlink" x="0px" y="0px" viewBox="0 0 1000 1000" enable-background="new 0 0 1000 1000" xml:space="preserve">
<metadata> Svg Vector Icons : http://www.onlinewebfonts.com/icon </metadata>
<g><g transform="translate(0.000000,511.000000) scale(0.100000,-0.100000)"><path d="M5522.5,4271.2c-38.3-19.1-74.6-59.3-95.7-105.3l-32.5-74.6H2747.1H100V4.7v-4086.5h4900h4900V4.7v4086.5h-197.1h-197.1l-32.5,74.6c-30.6,68.9-120.6,135.9-185.7,135.9s-155-67-185.7-135.9l-32.5-74.6h-191.4h-193.3l-32.5,76.6c-45.9,111-114.8,134-390.5,134c-268,0-335-23-384.7-135.9l-32.5-74.6h-191.4h-193.3l-32.5,76.6c-45.9,111-114.8,134-390.5,134c-268,0-335-23-384.7-135.9l-32.5-74.6h-191.4h-193.3l-32.5,76.6c-45.9,111-112.9,134-392.4,134C5643.1,4301.8,5568.5,4292.2,5522.5,4271.2z M9494.2,2661.4l3.8-1020.2h-411.5H8675V4.7v-1636.5h411.5H9498v-1014.5v-1014.5H5000H502V0.9c0,2015.5,5.7,3669.3,13.4,3675c5.7,7.7,2028.9,11.5,4492.3,9.6l4480.8-5.7L9494.2,2661.4z M9492.3,1047.9c5.7-170.4,3.8-178-23-130.2c-32.5,57.4-118.7,111-181.8,111s-149.3-53.6-179.9-111c-26.8-49.8-28.7-42.1-30.6,122.5c0,95.7,5.7,179.9,13.4,187.6c7.6,7.7,99.5,9.6,204.8,7.7l193.3-5.7L9492.3,1047.9z M9287.5,626.8c68.9,0,91.9,11.5,145.5,68.9l65.1,67V416.3V69.8l-65.1,67c-53.6,57.4-76.6,68.9-145.5,68.9c-65.1,0-91.9-11.5-145.5-65.1L9077,75.5v344.5v342.6l65.1-67C9195.6,638.3,9218.6,626.8,9287.5,626.8z M9191.8-167.5c30.6-15.3,72.7-28.7,95.7-28.7c63.2,0,149.3,53.6,179.9,111c26.8,47.9,28.7,21.1,30.6-312c0-346.4-1.9-359.8-32.5-315.8c-44,63.2-82.3,91.9-143.6,105.3c-67,15.3-170.3-32.5-210.5-101.4c-32.5-49.8-32.5-38.3-32.5,312c0,333.1,1.9,359.8,28.7,312C9122.9-113.9,9161.2-152.2,9191.8-167.5z M9207.1-992.5c97.6-45.9,187.6-15.3,258.4,88c32.5,45.9,32.5,42.1,32.5-130.2v-176.1h-210.5H9077v178c1.9,174.2,1.9,176.1,34.5,124.4C9128.6-938.9,9170.8-975.3,9207.1-992.5z"/><path d="M923,2655.7v-612.5l608.7,3.8l606.8,5.7l5.7,608.7l3.8,606.8h-612.5H923V2655.7z M1727,2665.3v-201h-201h-201v201v201h201h201V2665.3z"/><path d="M2634.2,3233.8c-105.3-84.2-112.9-208.6-19.1-302.4c74.6-74.6,153.1-86.1,241.2-32.5c174.2,101.4,101.4,369.4-99.5,369.4C2707,3268.2,2657.2,3254.8,2634.2,3233.8z"/><path d="M3428.6,3212.7c-130.2-130.2-32.5-346.4,157-346.4c82.3,0,189.5,107.2,189.5,189.5C3775,3245.2,3558.7,3342.9,3428.6,3212.7z"/><path d="M4257.3,3220.4c-72.7-61.3-91.9-137.8-53.6-225.9c28.7-70.8,111-128.2,183.8-128.2c70.8,0,155,57.4,183.8,128.2C4651.6,3185.9,4418.1,3354.3,4257.3,3220.4z"/><path d="M5084.2,3233.8c-105.3-84.2-112.9-208.6-19.1-302.4l65.1-65.1h1898.8c1736.1,0,1902.6,1.9,1952.3,32.5c111,65.1,130.2,222,40.2,313.9l-55.5,55.5H7044.2C5254.6,3268.2,5122.5,3264.4,5084.2,3233.8z"/><path d="M3055.3,2829.9c-68.9-42.1-111-143.6-91.9-220.1c5.7-26.8,38.3-70.8,68.9-97.6c160.8-134,394.3,34.4,313.9,225.9c-28.7,72.7-112.9,128.2-187.6,128.2C3133.8,2866.2,3087.9,2849,3055.3,2829.9z"/><path d="M3840.1,2801.2c-72.7-72.7-84.2-147.4-38.3-239.3c57.4-111,227.8-132.1,319.6-42.1c90,91.9,68.9,262.2-42.1,319.6C3987.5,2885.4,3912.8,2873.9,3840.1,2801.2z"/><path d="M2670.6,2437.5c-63.2-28.7-120.6-114.8-120.6-183.8c0-70.8,57.4-155,128.2-183.8c195.2-82.3,363.7,160.8,222,317.7C2837.1,2456.6,2754.8,2473.9,2670.6,2437.5z"/><path d="M3495.5,2445.2c-67-26.8-122.5-112.9-122.5-191.4c0-143.6,143.6-239.3,273.7-183.8c70.8,28.7,128.2,112.9,128.2,183.8s-57.4,155-124.4,183.8C3575.9,2468.1,3553,2468.1,3495.5,2445.2z"/><path d="M4297.5,2433.7c-74.6-36.4-128.2-141.6-111-218.2c15.3-70.8,91.9-147.4,162.7-162.7c78.5-17.2,181.8,36.4,218.2,114.8c17.2,34.4,30.6,72.7,30.6,86.1c0,57.4-65.1,153.1-124.4,179.9C4395.2,2472,4374.1,2472,4297.5,2433.7z"/><path d="M5120.6,2435.6c-63.2-26.8-120.6-112.9-120.6-181.8c0-70.8,57.4-155,124.4-183.8c97.6-40.2,3730.5-40.2,3826.2,0c135.9,57.4,170.3,210.5,70.8,321.6l-55.5,63.2l-1893,3.8C5491.9,2462.4,5172.3,2458.6,5120.6,2435.6z"/><path d="M1020.7,1614.5C923,1560.9,925,1591.5,923,200v-1299.7l55.5-55.5c93.8-91.9,271.8-65.1,323.5,49.8c17.2,36.4,23,379,23,1332.2v1284.3l-65.1,65.1C1189.1,1647,1104.9,1660.4,1020.7,1614.5z"/><path d="M1828.4,1603c-40.2-23-68.9-61.3-82.3-109.1c-15.3-51.7-19.1-453.6-15.3-1332.2l5.7-1261.4l63.2-55.5c72.7-65.1,178-74.7,250.7-24.9c97.6,68.9,97.6,67,97.6,1395.4c0,1355.2,1.9,1337.9-112.9,1395.4C1958.6,1650.8,1903.1,1648.9,1828.4,1603z"/><path d="M2615.1,1576.2c-72.7-72.7-84.2-147.4-38.3-239.3c57.4-111,227.8-132.1,319.6-42.1c90,91.9,68.9,262.2-42.1,319.6C2762.5,1660.4,2687.8,1648.9,2615.1,1576.2z"/><path d="M3470.7,1614.5c-97.6-53.6-95.7-23-97.6-1414.5v-1299.7l55.5-55.5c93.8-91.9,271.8-65.1,323.5,49.8c17.2,36.4,23,379,23,1332.2v1284.3l-65.1,65.1C3639.1,1647,3554.9,1660.4,3470.7,1614.5z"/><path d="M4278.4,1603c-40.2-23-68.9-61.3-82.3-109.1c-15.3-51.7-19.1-453.6-15.3-1332.2l5.7-1261.4l63.2-55.5c72.7-65.1,178-74.7,250.7-24.9c97.6,68.9,97.6,67,97.6,1395.4c0,1355.2,1.9,1337.9-112.9,1395.4C4408.6,1650.8,4353.1,1648.9,4278.4,1603z"/><path d="M6374.3,1622.1c-139.7-24.9-300.5-74.6-434.5-135.9c-118.7-53.6-132.1-55.5-424.9-55.5h-304.3v-304.3c0-294.8-1.9-306.3-57.4-428.7c-112.9-248.8-143.6-398.1-141.6-692.9c1.9-298.6,34.5-457.5,139.7-683.3c59.3-122.5,59.3-128.3,59.3-432.6v-310.1h313.9c308.2,0,315.8-1.9,434.5-57.4c403.9-189.5,934.1-189.5,1349.4,0c126.3,55.5,134,57.4,440.2,57.4h313.9v313.9c0,306.2,1.9,313.9,57.4,440.2c187.6,415.3,187.6,945.5,0,1349.4c-55.5,118.7-57.4,126.3-57.4,434.5v313.9h-310.1c-304.3,0-310.1,0-432.6,59.3c-195.2,91.9-386.6,134-635.5,141.6C6563.8,1635.5,6424.1,1631.7,6374.3,1622.1z M7004,1172.3c82.3-26.8,181.8-67,220.1-91.9l72.7-42.1l-149.3-109.1c-80.4-59.3-201-155-266.1-214.4c-63.2-59.3-128.3-107.2-141.6-107.2c-26.8,0-13.4,271.8,21,434.5C6805,1252.7,6785.8,1243.1,7004,1172.3z M6368.6,1158.9c-24.9-116.7-47.9-290.9-59.3-459.4c-9.6-137.8-19.1-187.6-38.3-187.6c-28.7,0-195.2,195.2-308.2,357.9c-53.6,78.5-63.2,105.3-47.9,126.3c45.9,55.5,361.8,201,440.2,204.8C6370.5,1201,6376.2,1185.7,6368.6,1158.9z M7693.1,615.3c55.5-99.5,147.4-333,134-344.5c-1.9-1.9-72.7,7.7-157,21.1c-84.2,13.4-237.4,30.6-340.7,38.3c-101.4,7.7-191.4,23-199.1,34.4c-19.1,30.6,436.4,386.6,478.5,371.3C7620.4,732.1,7658.6,678.5,7693.1,615.3z M5673.7,575.1c34.5-51.7,128.3-170.3,210.5-268c82.3-97.6,149.3-185.7,149.3-199.1c0-17.2-38.3-19.1-141.7-9.6c-156.9,13.4-451.7,63.2-467,76.6c-24.9,26.8,139.7,490,176.1,490C5606.8,665.1,5639.3,624.9,5673.7,575.1z M6739.9,178.9c59.3-32.5,97.6-103.4,97.6-185.7c0-82.3-107.2-189.5-189.5-189.5c-130.1,0-212.5,84.2-212.5,220.1C6435.5,167.4,6598.2,251.6,6739.9,178.9z M7603.1-110.1c269.9-44,250.7-28.7,218.2-168.4c-30.6-130.1-130.2-357.9-157-357.9c-7.7,0-57.4,57.4-111,128.2c-51.7,70.8-143.6,187.6-202.9,256.5c-61.3,70.8-111,137.8-111,149.3C7239.5-71.8,7386.8-75.7,7603.1-110.1z M5643.1-282.4c103.4-15.3,250.8-28.7,325.4-28.7c193.3,0,208.6-26.8,80.4-137.8c-109.1-91.9-367.5-283.3-384.7-283.3c-36.4,0-223.9,384.7-223.9,459.4C5440.2-249.8,5417.3-247.9,5643.1-282.4z M7279.6-824.1c111-160.8,116.8-145.5-78.5-250.8c-90-47.9-306.3-124.4-306.3-109.1c0,1.9,13.4,89.9,28.7,195.2c15.3,103.4,28.7,250.8,28.7,325.4c0,193.3,24.9,208.6,139.7,82.3C7141.8-638.4,7226.1-747.5,7279.6-824.1z M6542.7-736c-7.6-76.6-26.8-214.4-42.1-306.3c-34.5-187.6-19.1-178-199.1-126.3c-90,24.9-325.4,132.1-325.4,147.4c1.9,5.7,63.2,55.5,137.8,107.2c74.6,53.6,187.6,145.5,252.7,204.8c63.2,59.3,132.1,109.1,153.1,111C6552.3-598.2,6554.2-609.7,6542.7-736z"/><path d="M2634.2,783.8c-78.5-63.2-84.2-99.5-84.2-568.5c0-509.1,7.7-545.5,128.2-595.3c82.3-36.4,178-9.6,235.4,63.2c36.4,45.9,38.3,76.6,38.3,535.9v488.1l-55.5,55.5c-45.9,44-72.7,55.5-139.7,55.5C2707,818.2,2657.2,804.8,2634.2,783.8z"/><path d="M2615.1-873.8c-134-134-49.8-335,141.6-336.9c155,0,241.2,147.4,172.3,296.7c-26.8,61.3-107.2,105.3-189.5,105.3C2697.4-808.8,2661-827.9,2615.1-873.8z"/><path d="M926.9-2133.3c5.7-463.2,9.6-513,47.9-614.4c82.3-218.2,250.7-392.4,453.6-465.1c91.9-34.5,189.5-36.4,1634.6-42.1l1535.1-5.7v815.4v813.5H2758.6H921.1L926.9-2133.3z M4177-2445.3v-411.5H2942.4c-846,0-1265.2,7.7-1334.1,21c-208.6,45.9-283.3,197.2-283.3,576.1v225.9h1426h1426V-2445.3z"/><path d="M1807.3-2292.1c-72.7-61.3-91.9-137.8-53.6-225.9c53.6-130.1,44-128.2,1018.3-128.2h872.8l65.1,65.1c72.7,72.7,84.2,147.4,38.3,239.3c-51.7,95.7-63.2,97.6-1006.8,97.6h-876.6L1807.3-2292.1z"/><path d="M5065.1-2098.8c-45.9-45.9-65.1-82.3-65.1-124.4c0-82.3,44-162.7,105.3-189.5c36.4-17.2,518.7-23,1954.2-23h1906.4l55.5,55.5c61.3,61.2,72.8,151.2,32.5,241.2c-49.8,109.1,36.4,105.3-2027,105.3H5130.2L5065.1-2098.8z"/><path d="M5084.2-2891.2c-105.3-84.2-112.9-208.6-19.1-302.4l65.1-65.1H7027c2063.3,0,1977.2-3.8,2027,105.3c40.2,90,28.7,179.9-32.5,241.2l-55.5,55.5H7044.2C5254.6-2856.8,5122.5-2860.6,5084.2-2891.2z"/></g></g>
</svg>