<svg version="1.1" xmlns="http://www.w3.org/2000/svg" xmlns:xlink="http://www.w3.org/1999/xlink" x="0px" y="0px" viewBox="0 0 1000 1000" enable-background="new 0 0 1000 1000" xml:space="preserve" id="ram">
<g><g transform="translate(0.000000,511.000000) scale(0.100000,-0.100000)"><path d="M228,2874.6c-24-8-62-42-86-72l-42-54v-1992c0-1810,2-1998,32-2040c46-64,148-102,278-102h110v-550c0-616,6-650,130-702c102-42,8598-42,8700,0c124,52,130,86,130,702v550h110c130,0,232,38,278,102c30,42,32,230,32,2042v1996l-58,64l-58,66l-4758,4C2410,2890.6,250,2884.6,228,2874.6z M9480,754.6v-1700H5000H520v1700v1700h4480h4480V754.6z M9060-1805.4v-420h-220h-220v248c0,238-2,252-50,308c-64,76-144,96-236,56c-110-46-134-112-134-382v-230h-210h-210v222c0,258-26,338-130,386c-82,40-98,40-180,0c-104-48-130-128-130-386v-222h-210h-210v230c0,270-24,336-134,382c-92,40-172,20-236-56c-48-56-50-70-50-308v-248h-220h-220v248c0,238-2,252-50,308c-64,76-144,96-236,56c-110-46-134-112-134-382v-230h-210h-210v222c0,258-26,338-130,386c-82,40-98,40-180,0c-104-48-130-128-130-386v-222h-210h-210v230c0,270-24,336-134,382c-92,40-172,20-236-56c-48-56-50-70-50-308v-248h-220h-220v248c0,238-2,252-50,308c-64,76-144,96-236,56c-110-46-134-112-134-382v-230h-210h-210v222c0,258-26,338-130,386c-82,40-98,40-180,0c-104-48-130-128-130-386v-222h-210h-210v230c0,270-24,336-134,382c-92,40-172,20-236-56c-48-56-50-70-50-308v-248h-220H940v420v420h4060h4060V-1805.4z"/><path d="M1048,1996.6c-34-22-72-68-86-104c-16-44-22-392-22-1142c0-1182,0-1184,118-1244c50-28,162-32,742-32c760,0,778,2,832,130c42,102,42,2198,0,2300c-54,128-72,130-836,130C1158,2034.6,1106,2032.6,1048,1996.6z M2220,754.6v-860h-420h-420v860v860h420h420V754.6z"/><path d="M3148,1966.6l-68-68v-1144v-1144l68-68l68-68h704c766,0,788,4,838,114c32,70,30,2266-2,2336c-48,106-74,110-838,110h-702L3148,1966.6z M4360,754.6v-860l-424,4l-426,6l-6,830c-2,456,0,842,6,854c6,20,112,26,430,26h420V754.6z"/><path d="M5330,2010.6c-22-12-56-40-74-64c-32-38-36-132-36-1176c0-838,6-1148,24-1186c48-106,74-110,838-110h702l68,68l68,68v1144v1144l-68,68l-68,68h-708C5602,2032.6,5356,2026.6,5330,2010.6z M6490,754.6v-850l-424-6l-426-4v860v860l426-4l424-6V754.6z"/><path d="M7448,1996.6c-34-22-72-68-86-104c-16-44-22-392-22-1142c0-1182,0-1184,118-1244c50-28,162-32,742-32c760,0,778,2,832,130c42,102,42,2198,0,2300c-54,128-72,130-836,130C7558,2034.6,7506,2032.6,7448,1996.6z M8620,754.6v-860h-420h-420v860v860h420h420V754.6z"/></g></g>
</svg>