<?xml version="1.0" encoding="utf-8"?>
<!-- Svg Vector Icons : http://www.onlinewebfonts.com/icon -->
<!DOCTYPE svg PUBLIC "-//W3C//DTD SVG 1.1//EN" "http://www.w3.org/Graphics/SVG/1.1/DTD/svg11.dtd">
<svg version="1.1" xmlns="http://www.w3.org/2000/svg" xmlns:xlink="http://www.w3.org/1999/xlink" x="0px" y="0px" viewBox="0 0 1000 1000" enable-background="new 0 0 1000 1000" xml:space="preserve">
<metadata> Svg Vector Icons : http://www.onlinewebfonts.com/icon </metadata>
<g><g><g id="_x31_26_66_"><g><path d="M111.2,10v980h777.5V10H111.2z M523,145.8h258.9v135.8H523V145.8z M523,329.7h258.9v135.8H523V329.7z M523,511.8h258.9v135.8H523V511.8z M214.2,145.8h258.9v135.8H214.2V145.8z M214.2,329.7h258.9v135.8H214.2V329.7z M214.2,511.8h258.9v135.8H214.2V511.8z M406.8,887.6c-5,8.1-11.6,14.6-19.7,19.6c-8.1,4.9-17.3,8.5-27.5,10.7c-10.2,2.1-20.5,3.2-30.9,3.2c-3.4,0-7.9-0.3-13.2-0.8c-5.4-0.5-11.1-1.7-17.1-3.4c-6.1-1.7-12.1-4.1-18.2-7c-6.1-2.9-11.5-6.9-16.3-11.9c-4.8-5-8.8-11.1-11.9-18.2c-3.1-7.1-4.7-15.6-4.7-25.4h57c0,4.5,0.7,8.5,2.1,12.2c2.1,5.5,5.8,9.2,11.2,10.9c5.4,1.8,10.7,2.6,16.1,2.6c2.2,0,4.8-0.2,7.5-0.7c2.7-0.4,5.4-1.3,7.8-2.6c2.4-1.3,4.4-3,6-5.2c1.6-2.2,2.4-5,2.4-8.4c0-2.4-0.6-4.4-1.8-6.1c-1.2-1.7-3.3-3.2-6.2-4.7c-2.9-1.5-7-3-12.2-4.7c-5.2-1.6-11.8-3.6-19.7-5.8c-7.3-2.1-14.7-4.3-22.2-6.6c-7.5-2.3-14.3-5.4-20.2-9.3c-6-3.9-10.8-8.8-14.7-14.8c-3.8-6-5.7-13.6-5.7-23c0-10.7,2.1-19.9,6.4-27.6c4.3-7.7,9.8-14,16.7-19.1c6.9-5,14.9-8.7,23.9-11c9-2.3,18.2-3.5,27.7-3.5c10,0,19.6,1.1,28.8,3.1c9.2,2,17.3,5.5,24.4,10.2c7.1,4.8,12.8,11,17.1,18.7c4.3,7.7,6.7,17.2,7,28.4h-54c0.5-3.4,0.2-6.4-1.2-8.8c-1.3-2.4-3.2-4.4-5.6-6c-2.4-1.7-5.1-2.9-8.1-3.6c-2.9-0.7-5.9-1-8.8-1c-1.9,0-4.1,0.1-6.5,0.5c-2.4,0.3-4.6,1-6.7,1.8c-2.1,0.9-3.8,2.1-5.2,3.8c-1.4,1.6-2.1,3.7-2.1,6.3c0.2,3.3,1.9,6,5.1,8.2c3.2,2.1,7.3,4.1,12.3,5.7c5,1.6,10.7,3.2,17,4.6c6.3,1.5,12.7,3.1,19.3,4.8c6.6,1.9,13,4.2,19.2,6.8c6.2,2.6,11.8,5.9,16.7,10c4.9,4.1,8.9,9.1,11.8,15c2.9,6,4.4,13.2,4.4,21.7C414.4,869.4,411.8,879.5,406.8,887.6z M579.8,887.6c-5,8.1-11.6,14.6-19.7,19.6c-8.2,4.9-17.3,8.5-27.5,10.7c-10.2,2.1-20.5,3.2-30.9,3.2c-3.4,0-7.9-0.3-13.2-0.8c-5.4-0.5-11.1-1.7-17.1-3.4c-6.1-1.7-12.1-4.1-18.2-7c-6.1-2.9-11.5-6.9-16.3-11.9c-4.8-5-8.8-11.1-11.9-18.2c-3.1-7.1-4.6-15.6-4.6-25.4h57c0,4.5,0.7,8.5,2.1,12.2c2.1,5.5,5.8,9.2,11.2,10.9c5.4,1.8,10.7,2.6,16.1,2.6c2.2,0,4.8-0.2,7.5-0.7c2.7-0.4,5.3-1.3,7.7-2.6c2.4-1.3,4.4-3,6-5.2c1.6-2.2,2.4-5,2.4-8.4c0-2.4-0.6-4.4-1.8-6.1c-1.2-1.7-3.3-3.2-6.2-4.7c-2.9-1.5-7-3-12.2-4.7c-5.2-1.6-11.8-3.6-19.7-5.8c-7.3-2.1-14.7-4.3-22.2-6.6c-7.5-2.3-14.3-5.4-20.2-9.3c-6-3.9-10.8-8.8-14.6-14.8c-3.8-6-5.7-13.6-5.7-23c0-10.7,2.1-19.9,6.4-27.6c4.2-7.7,9.8-14,16.7-19.1c6.9-5,14.9-8.7,23.9-11c9-2.3,18.2-3.5,27.7-3.5c10,0,19.6,1.1,28.8,3.1c9.2,2,17.3,5.5,24.4,10.2c7.1,4.8,12.8,11,17.1,18.7c4.3,7.7,6.7,17.2,7,28.4h-54c0.5-3.4,0.1-6.4-1.2-8.8c-1.3-2.4-3.2-4.4-5.6-6c-2.4-1.7-5.1-2.9-8-3.6c-2.9-0.7-5.9-1-8.8-1c-1.9,0-4.1,0.1-6.5,0.5c-2.4,0.3-4.7,1-6.7,1.8c-2.1,0.9-3.8,2.1-5.2,3.8c-1.4,1.6-2.1,3.7-2.1,6.3c0.2,3.3,1.9,6,5.1,8.2c3.2,2.1,7.3,4.1,12.3,5.7c5,1.6,10.7,3.2,17,4.6c6.3,1.5,12.7,3.1,19.3,4.8c6.6,1.9,13,4.2,19.2,6.8c6.2,2.6,11.8,5.9,16.7,10c4.9,4.1,8.9,9.1,11.8,15c2.9,6,4.4,13.2,4.4,21.7C587.3,869.4,584.8,879.5,579.8,887.6z M776.4,862.3c-3.8,11.5-9.6,21.2-17.4,29.3c-7.8,8-17.6,14.2-29.6,18.5c-11.9,4.3-26,6.5-42,6.5H605V731.5h93.6c15.4,0,28.4,2.7,39,7.9c10.6,5.3,19.2,12.2,25.8,20.8c6.6,8.5,11.3,18.4,14.3,29.5c2.9,11.2,4.4,22.5,4.4,34.1C782,838,780.2,850.9,776.4,862.3z"/><path d="M718.1,796.6c-3-4.8-7.5-9-13.5-12.5c-6-3.5-14.1-5.2-24.5-5.2H662v90.2h22.3c8.8,0,15.9-1.6,21.3-4.8c5.3-3.2,9.5-7.1,12.3-11.8c2.8-4.6,4.7-9.7,5.7-15c0.9-5.4,1.4-10.2,1.4-14.5c0-3-0.4-6.9-1.2-11.8C723.1,806.3,721.1,801.4,718.1,796.6z"/></g></g></g><g></g><g></g><g></g><g></g><g></g><g></g><g></g><g></g><g></g><g></g><g></g><g></g><g></g><g></g><g></g></g>
</svg>