<?xml version="1.0" encoding="utf-8"?>
<!-- Svg Vector Icons : http://www.onlinewebfonts.com/icon -->
<!DOCTYPE svg PUBLIC "-//W3C//DTD SVG 1.1//EN" "http://www.w3.org/Graphics/SVG/1.1/DTD/svg11.dtd">
<svg version="1.1" xmlns="http://www.w3.org/2000/svg" xmlns:xlink="http://www.w3.org/1999/xlink" x="0px" y="0px" viewBox="0 0 1000 1000" enable-background="new 0 0 1000 1000" xml:space="preserve">
<metadata> Svg Vector Icons : http://www.onlinewebfonts.com/icon </metadata>
<g><g transform="translate(0.000000,511.000000) scale(0.100000,-0.100000)"><path d="M1325,2968.6v-201H913.5c-403.9,0-411.5,0-411.5,40.2c0,21.1-24.9,65.1-55.5,95.7c-93.8,91.9-271.8,65.1-323.5-49.8c-17.2-38.3-23-721.6-23-2861.5v-2809.8l49.8-59.3c90-109.1,275.6-91.9,331.1,28.7c13.4,32.5,21.1,281.4,21.1,782.9v736.9h411.5H1325v-220.1c0-258.4,23-321.6,128.2-365.6c82.3-36.4,178-9.6,235.4,63.2l38.3,49.8V-2073v-269.9h2249h2249v283.3v281.4l36.4-59.3c42.1-68.9,143.6-111,218.2-93.8c57.4,15.3,141.6,99.5,151.2,153.1c5.7,38.3,23,38.3,1638.4,44l1630.8,3.8v2450v2450H5612.5H1325V2968.6z M9488.5,719.6v-2038.5h-3876h-3876l-5.7,2019.3c-1.9,1110.2,0,2030.8,5.7,2044.2c5.7,19.1,792.4,23,3879.8,19.1l3872.1-5.7V719.6z M1325,2040.3c0-289-1.9-306.3-36.4-306.3c-55.5,0-151.2-88-164.6-151.2c-19.1-91.9,34.4-191.4,124.4-227.8l76.6-32.5v-193.3V937.8l-74.6-32.5c-68.9-30.6-135.9-120.6-135.9-185.7c0-65.1,67-155,135.9-185.7l74.6-32.5V310V116.6l-76.6-32.5c-90-36.4-143.6-135.9-124.4-227.8c13.4-63.2,109.1-151.2,164.6-151.2c34.5,0,36.4-17.2,36.4-306.3v-306.3H913.5H502v199.1v199.1l57.4,13.4c30.6,7.7,78.5,38.3,105.3,70.8c47.9,55.5,47.9,59.3,47.9,419.2c0,417.3-9.6,453.6-134,503.4L502,528.2v191.4V911l72.7,28.7c128.2,51.7,137.8,90,137.8,507.2v367.5l-65.1,65.1c-36.4,36.4-82.3,65.1-105.3,65.1c-38.3,0-40.2,9.6-40.2,201v201h411.5H1325V2040.3z M2615.1-1795.5c-36.4-36.4-65.1-82.3-65.1-105.3c0-38.3-9.6-40.2-201-40.2h-201v105.3v105.3h266.1h266L2615.1-1795.5z M3468.7-1759.1c-45.9-24.9-78.5-70.8-103.4-147.4c-9.6-30.6-36.4-34.5-202.9-34.5h-191.4l-30.6,76.6c-17.2,44-53.6,90-82.3,105.3c-44,24.9-13.4,26.8,304.3,26.8C3474.5-1732.3,3510.9-1734.2,3468.7-1759.1z M4280.3-1766.8c-38.3-22.9-70.8-65.1-84.2-105.3l-23-68.9h-199.1c-189.5,0-199.1,1.9-199.1,40.2c0,23-28.7,68.9-65.1,105.3l-65.1,65.1h348.4h346.4L4280.3-1766.8z M5065.1-1795.5c-36.4-36.4-65.1-82.3-65.1-105.3c0-38.3-9.6-40.2-199.1-40.2h-199.1l-23,68.9c-13.4,40.2-45.9,82.3-84.2,105.3l-59.3,36.4h348.4h346.4L5065.1-1795.5z M5823-1835.7V-1941h-201h-201l-30.6,76.6c-17.2,44-53.6,90-82.3,105.3c-45.9,24.9-22.9,26.8,233.5,28.7H5823V-1835.7z"/><path d="M2203.6,2291l-55.5-55.5V719.6V-796.4l55.5-55.5c91.9-90,248.8-70.8,313.9,40.2c28.7,49.8,32.5,187.6,32.5,1529.3c0,1102.5-5.7,1487.2-23,1523.6C2475.4,2356.1,2297.3,2382.9,2203.6,2291z"/><path d="M3032.3,2298.7c-72.7-61.3-91.9-137.8-53.6-225.9c28.7-72.7,112.9-128.2,187.6-128.2c74.6,0,162.7,67,187.6,143.6C3417.1,2277.6,3185.5,2428.8,3032.3,2298.7z"/><path d="M4856.4,2315.9c-296.7-65.1-595.3-233.5-807.7-449.8c-155-158.9-229.7-264.1-317.7-449.8c-112.9-243.1-151.2-419.2-151.2-696.7S3618,265.9,3731,22.9c88-185.6,162.7-290.9,317.7-449.8c325.4-333,746.5-495.7,1226.9-474.7c277.5,11.5,447.9,57.4,681.4,178c394.3,202.9,681.4,553.2,815.4,993.4c45.9,153.1,51.7,202.9,51.7,449.8c0,246.9-5.7,296.7-51.7,449.8c-95.7,317.7-285.2,606.8-526.4,807.7c-141.6,116.8-449.8,275.6-624,323.5C5457.5,2346.5,5028.7,2354.2,4856.4,2315.9z M5526.4,1898.6c120.6-32.5,289-103.4,313.9-134c13.4-17.2-23-53.6-128.3-130.2c-80.4-59.3-201-156.9-268-216.3c-157-143.6-170.4-132.1-141.6,120.6c32.5,283.3,59.3,386.6,95.7,386.6C5415.4,1925.4,5474.7,1914,5526.4,1898.6z M4933,1845c-36.4-222-47.9-329.2-47.9-461.3c0-187.6-28.7-206.7-130.2-90c-118.7,135.9-290.9,386.6-279.5,403.9c28.7,47.9,363.7,206.7,434.5,208.6C4938.7,1906.3,4942.6,1894.8,4933,1845z M6311.1,1232.5c36.4-76.6,70.8-164.6,78.5-195.2l13.4-55.5l-103.3,13.4c-294.8,42.1-361.8,47.9-468.9,49.8c-82.3,0-120.6,7.7-128.3,26.8c-11.5,26.8,141.6,160.8,356,312l114.8,80.4l36.4-45.9C6228.8,1393.3,6274.8,1311,6311.1,1232.5z M4255.4,1268.9c38.3-53.6,132.1-170.4,206.7-256.5c170.3-199.1,174.2-220.1,26.8-204.8c-158.9,15.3-467,65.1-484.3,74.6c-38.3,23,124.4,488.1,168.4,488.1C4180.8,1370.4,4217.1,1324.4,4255.4,1268.9z M5350.3,851.6c143.6-155-26.8-398.1-222-315.8c-70.8,28.7-128.2,112.9-128.2,183.8c0,68.9,57.4,155,120.6,181.8C5202.9,937.8,5285.2,920.6,5350.3,851.6z M6225,591.3c99.5-15.3,185.7-32.5,189.5-36.4c26.8-24.9-143.6-486.2-179.9-486.2c-3.8,0-57.4,67-116.7,149.3c-61.3,80.4-157,197.2-214.4,256.5c-134,139.7-126.3,174.2,28.7,156.9C5993.4,625.8,6125.5,608.6,6225,591.3z M4263.1,422.9c105.3-15.3,245-28.7,310.1-28.7c70.8,0,124.4-9.6,132.1-23c17.2-26.8-84.2-118.7-306.3-277.5c-118.7-86.1-157-103.3-179.9-88c-40.2,24.9-164.6,266.1-191.4,369.4C4004.7,465,3989.4,463.1,4263.1,422.9z M5708.2,78.4c134-170.4,229.7-306.3,229.7-329.2c0-45.9-436.4-245-467-214.4c-5.7,5.8-1.9,42.1,7.7,84.2s26.8,183.7,38.3,315.8c24.9,266,28.7,287.1,57.4,287.1C5583.8,221.9,5645,156.8,5708.2,78.4z M5111,42c7.7-89.9-49.8-493.8-72.7-516.8c-26.8-26.8-206.7,19.1-361.8,93.8l-137.8,67l187.6,141.7c103.4,78.5,222,178,264.1,220.1c40.2,44,84.2,76.5,95.7,72.7C5095.7,116.6,5107.2,82.2,5111,42z"/><path d="M7924.7,2291l-63.2-55.5l-5.7-1462.3c-3.8-1003,0-1483.4,15.3-1531.2c38.3-132.1,195.2-193.3,304.3-118.7c99.5,70.8,97.6,51.7,97.6,1596.3c0,1544.7,1.9,1525.5-97.6,1596.3C8102.7,2365.7,7997.4,2356.1,7924.7,2291z"/><path d="M8759.2,2312.1c-23-17.2-51.7-51.7-63.2-74.7c-30.6-61.2-30.6-2970.6,1.9-3039.5c51.7-114.8,229.7-141.7,323.5-49.8l55.5,55.5V719.6v1515.9l-55.5,55.5c-45.9,44-72.7,55.5-139.7,55.5C8832,2346.5,8782.2,2333.1,8759.2,2312.1z"/><path d="M7153.3-528.4c-70.8-38.3-105.3-99.5-105.3-183.8c0-201,268-273.7,369.4-99.5c53.6,88,42.1,166.5-32.5,241.2C7316-501.6,7229.9-486.3,7153.3-528.4z"/></g></g>
</svg>